Coordinates
version=1
nRows=17
nColumns=40
inDegrees=yes

Units are S.I. units (second, meters, Newtons, ...)
If the header above contains a line with 'inDegrees', this indicates whether rotational values are in degrees (yes) or radians (no).

endheader
time	pelvis_tilt	pelvis_list	pelvis_rotation	pelvis_tx	pelvis_ty	pelvis_tz	hip_flexion_r	hip_adduction_r	hip_rotation_r	knee_angle_r	knee_angle_r_beta	ankle_angle_r	subtalar_angle_r	mtp_angle_r	hip_flexion_l	hip_adduction_l	hip_rotation_l	knee_angle_l	knee_angle_l_beta	ankle_angle_l	subtalar_angle_l	mtp_angle_l	lumbar_extension	lumbar_bending	lumbar_rotation	arm_flex_r	arm_add_r	arm_rot_r	elbow_flex_r	pro_sup_r	wrist_flex_r	wrist_dev_r	arm_flex_l	arm_add_l	arm_rot_l	elbow_flex_l	pro_sup_l	wrist_flex_l	wrist_dev_l
      1.62000000	      1.00279029	      5.35861203	    -87.94332241	      0.21012081	      0.87994642	      0.80721203	     29.37315790	     -2.68019848	     -1.06327523	     -2.88774260	     -0.05040062	      0.06906571	      0.00000000	      0.00000000	    -17.68559555	      2.15805571	      9.10788778	      3.42006491	      0.05969139	     18.06216436	      0.00000000	      0.00000000	     -4.37948918	     -1.81914356	    -10.77268004	      0.00000000	      0.00000000	      0.00000000	      0.00000000	      0.00000000	      0.00000000	      0.00000000	      0.00000000	      0.00000000	      0.00000000	      0.00000000	      0.00000000	      0.00000000	      0.00000000
      1.63000000	      0.80887806	      5.30923110	    -87.84484163	      0.20873970	      0.87818368	      0.81977889	     29.51169721	     -2.30434074	     -0.83050584	     -1.79255073	     -0.03128591	     -0.91022416	      0.00000000	      0.00000000	    -17.97337533	      1.82436434	      9.02892394	      4.59263122	      0.08015654	     18.01884472	      0.00000000	      0.00000000	     -4.30599156	     -1.44543457	    -10.90973611	      0.00000000	      0.00000000	      0.00000000	      0.00000000	      0.00000000	      0.00000000	      0.00000000	      0.00000000	      0.00000000	      0.00000000	      0.00000000	      0.00000000	      0.00000000	      0.00000000
      1.64000000	      0.57466686	      5.23520536	    -87.74791931	      0.20732375	      0.87670163	      0.83242717	     29.66408379	     -1.90041898	     -0.66856343	     -0.49868549	     -0.00870370	     -2.22017673	      0.00000000	      0.00000000	    -18.16794496	      1.44886188	      8.81678313	      5.93286104	      0.10354796	     17.89148922	      0.00000000	      0.00000000	     -4.23878979	     -1.03146240	    -11.02858567	      0.00000000	      0.00000000	      0.00000000	      0.00000000	      0.00000000	      0.00000000	      0.00000000	      0.00000000	      0.00000000	      0.00000000	      0.00000000	      0.00000000	      0.00000000	      0.00000000
      1.65000000	      0.30603983	      5.15310118	    -87.66318209	      0.20580717	      0.87550751	      0.84514791	     29.84350681	     -1.47393226	     -0.56064726	      0.96872781	      0.01690749	     -3.70924704	     -0.00000000	      0.00000000	    -18.24977002	      1.03503704	      8.51476496	      7.45454621	      0.13010638	     17.57142756	     -0.00000000	      0.00000000	     -4.18227961	     -0.58774590	    -11.15077389	      0.00000000	     -0.00000000	     -0.00000000	      0.00000000	      0.00000000	     -0.00000000	     -0.00000000	      0.00000000	     -0.00000000	     -0.00000000	      0.00000000	      0.00000000	      0.00000000	     -0.00000000
      1.66000000	      0.03336393	      5.04727244	    -87.60853366	      0.20422978	      0.87461553	      0.85793698	     30.02878584	     -1.04572155	     -0.51984584	      2.58214740	      0.04506697	     -5.24738087	      0.00000000	      0.00000000	    -18.22525883	      0.61525604	      8.11723539	      9.16177088	      0.15990307	     17.04332423	      0.00000000	      0.00000000	     -4.14163585	     -0.11198868	    -11.27008993	      0.00000000	      0.00000000	      0.00000000	      0.00000000	      0.00000000	      0.00000000	      0.00000000	      0.00000000	      0.00000000	      0.00000000	      0.00000000	      0.00000000	      0.00000000	      0.00000000
      1.67000000	     -0.26576756	      4.94073849	    -87.55987782	      0.20256110	      0.87405502	      0.87072911	     30.22600224	     -0.60197060	     -0.55981762	      4.29610583	      0.07498119	     -6.75180195	      0.00000000	      0.00000000	    -18.03826652	      0.15590905	      7.59602682	     11.08259916	      0.19342784	     16.31012125	      0.00000000	      0.00000000	     -4.08744008	      0.37743941	    -11.36173568	      0.00000000	      0.00000000	      0.00000000	      0.00000000	      0.00000000	      0.00000000	      0.00000000	      0.00000000	      0.00000000	      0.00000000	      0.00000000	      0.00000000	      0.00000000	      0.00000000
      1.68000000	     -0.51495262	      4.74851325	    -87.53918737	      0.20086006	      0.87395244	      0.88346607	     30.34410263	     -0.21671116	     -0.59693525	      6.12549851	      0.10691012	     -7.92297985	      0.00000000	      0.00000000	    -17.81705923	     -0.26452844	      7.03791488	     13.15158644	      0.22953849	     15.29047865	      0.00000000	      0.00000000	     -4.15874702	      0.81048099	    -11.51049977	      0.00000000	      0.00000000	      0.00000000	      0.00000000	      0.00000000	     -0.00000000	     -0.00000000	      0.00000000	     -0.00000000	     -0.00000000	      0.00000000	      0.00000000	     -0.00000000	     -0.00000000
      1.69000000	     -0.82797401	      4.62210449	    -87.50700751	      0.19905043	      0.87409087	      0.89622016	     30.50365781	      0.22054820	     -0.72633752	      7.98656359	      0.13939183	     -8.86392139	      0.00000000	      0.00000000	    -17.34396680	     -0.79606561	      6.33240157	     15.44705043	      0.26960189	     14.04795210	      0.00000000	      0.00000000	     -4.12189764	      1.28656727	    -11.55294427	      0.00000000	      0.00000000	      0.00000000	      0.00000000	      0.00000000	      0.00000000	      0.00000000	      0.00000000	      0.00000000	      0.00000000	      0.00000000	      0.00000000	      0.00000000	      0.00000000
      1.70000000	     -1.09162757	      4.45315195	    -87.51064645	      0.19717132	      0.87463357	      0.90885718	     30.58720630	      0.61466323	     -0.85054686	      9.87353194	      0.17232564	     -9.35133158	      0.00000000	      0.00000000	    -16.74866632	     -1.30226533	      5.53600352	     17.94208912	      0.31314853	     12.53317309	      0.00000000	      0.00000000	     -4.15584121	      1.70545023	    -11.62730744	      0.00000000	      0.00000000	      0.00000000	      0.00000000	      0.00000000	      0.00000000	      0.00000000	      0.00000000	      0.00000000	      0.00000000	      0.00000000	      0.00000000	      0.00000000	      0.00000000
      1.71000000	     -1.35197292	      4.27838966	    -87.52458062	      0.19521975	      0.87553051	      0.92136390	     30.60288760	      1.01148871	     -0.96454471	     11.73223209	      0.20476608	     -9.36927234	      0.00000000	      0.00000000	    -15.99710694	     -1.84735377	      4.70828966	     20.61545584	      0.35980758	     10.74378909	      0.00000000	      0.00000000	     -4.20340260	      2.10665142	    -11.68791247	      0.00000000	      0.00000000	      0.00000000	      0.00000000	      0.00000000	      0.00000000	      0.00000000	      0.00000000	      0.00000000	      0.00000000	      0.00000000	      0.00000000	      0.00000000	      0.00000000
      1.72000000	     -1.59570822	      4.11755337	    -87.55742313	      0.19318080	      0.87672910	      0.93368386	     30.55151820	      1.41056066	     -1.03431407	     13.51033490	      0.23579983	     -8.91019219	      0.00000000	      0.00000000	    -15.06213146	     -2.42053922	      3.83884338	     23.47252234	      0.40967280	      8.68412630	      0.00000000	      0.00000000	     -4.25160039	      2.46816444	    -11.71055813	      0.00000000	      0.00000000	      0.00000000	      0.00000000	      0.00000000	      0.00000000	      0.00000000	      0.00000000	      0.00000000	      0.00000000	      0.00000000	      0.00000000	      0.00000000	      0.00000000
      1.73000000	     -1.81197862	      3.91929063	    -87.59338141	      0.19113734	      0.87830102	      0.94585670	     30.33665508	      1.78785391	     -1.09995441	     15.12200165	      0.26392872	     -8.11849175	      0.00000000	      0.00000000	    -14.02821794	     -3.00769426	      3.01262598	     26.46044695	      0.46182192	      6.43240232	      0.00000000	      0.00000000	     -4.34803913	      2.79358645	    -11.75655496	      0.00000000	      0.00000000	      0.00000000	      0.00000000	      0.00000000	      0.00000000	      0.00000000	      0.00000000	      0.00000000	      0.00000000	      0.00000000	      0.00000000	      0.00000000	      0.00000000
      1.74000000	     -2.00653120	      3.73731099	    -87.62366530	      0.18901607	      0.88013176	      0.95777345	     30.00656192	      2.16508772	     -1.10363269	     16.52382188	      0.28839510	     -7.03002944	      0.00000000	      0.00000000	    -12.82287217	     -3.62067932	      2.22665899	     29.59703353	      0.51656568	      4.01465562	      0.00000000	      0.00000000	     -4.45079747	      3.05199363	    -11.76195610	      0.00000000	      0.00000000	      0.00000000	      0.00000000	      0.00000000	      0.00000000	      0.00000000	      0.00000000	      0.00000000	      0.00000000	      0.00000000	      0.00000000	      0.00000000	      0.00000000
      1.75000000	     -2.19182518	      3.52755000	    -87.65702339	      0.18689308	      0.88224608	      0.96947147	     29.50788802	      2.54542498	     -1.13099782	     17.67999069	      0.30857405	     -5.84343567	      0.00000000	      0.00000000	    -11.52829260	     -4.25874629	      1.50698806	     32.82362678	      0.57288036	      1.52922807	      0.00000000	      0.00000000	     -4.60735624	      3.30628966	    -11.79962708	      0.00000000	      0.00000000	      0.00000000	      0.00000000	      0.00000000	      0.00000000	      0.00000000	      0.00000000	      0.00000000	      0.00000000	      0.00000000	      0.00000000	      0.00000000	      0.00000000
      1.76000000	     -2.35897442	      3.36558929	    -87.69161963	      0.18476874	      0.88451102	      0.98090230	     28.91033436	      2.92841759	     -1.07552864	     18.56112887	      0.32395281	     -4.53596416	      0.00000000	      0.00000000	    -10.07134160	     -4.90450090	      0.85719255	     36.11131891	      0.63026141	     -0.97865384	      0.00000000	      0.00000000	     -4.71787952	      3.52020468	    -11.77369896	      0.00000000	      0.00000000	      0.00000000	      0.00000000	      0.00000000	      0.00000000	      0.00000000	      0.00000000	      0.00000000	      0.00000000	      0.00000000	      0.00000000	      0.00000000	      0.00000000
      1.77000000	     -2.50452244	      3.21350684	    -87.71655983	      0.18267190	      0.88693722	      0.99206508	     28.17901000	      3.29418120	     -1.02479223	     19.14915918	      0.33421588	     -3.26979738	      0.00000000	      0.00000000	     -8.50800574	     -5.54034706	      0.33168199	     39.43687447	      0.68830331	     -3.37285640	      0.00000000	      0.00000000	     -4.83548099	      3.68929676	    -11.75309529	      0.00000000	      0.00000000	      0.00000000	      0.00000000	      0.00000000	      0.00000000	      0.00000000	      0.00000000	      0.00000000	      0.00000000	      0.00000000	      0.00000000	      0.00000000	      0.00000000
      1.78000000	     -2.56726023	      3.22344765	    -87.75577065	      0.18058297	      0.88924838	      1.00278265	     27.54778150	      3.58482505	     -0.90104274	     19.54239029	      0.34107905	     -2.06421676	      0.00000000	      0.00000000	     -6.65727620	     -6.07190239	     -0.07790579	     42.81775505	      0.74731080	     -5.49734060	      0.00000000	      0.00000000	     -4.79948582	      3.74538123	    -11.66371865	      0.00000000	      0.00000000	      0.00000000	      0.00000000	      0.00000000	      0.00000000	      0.00000000	      0.00000000	      0.00000000	      0.00000000	      0.00000000	      0.00000000	      0.00000000	      0.00000000
